
<svg xmlns="http://www.w3.org/2000/svg" width="150" height="44" viewBox="0 0 243.854 61.44">
  <g id="white-logo" transform="translate(-9220.6 -2505.134)">
    <g id="Group_416" data-name="Group 416" transform="translate(8810.6 407.095)">
      <path id="Path_4" data-name="Path 4" d="M120.966,850.954v-1.38a1.821,1.821,0,0,1,.422-.117q121.29-.006,242.579,0a1.567,1.567,0,0,1,.4.121v1.244c-.1.069-.129.1-.168.12a.274.274,0,0,1-.119.046q-121.223.018-242.445.029C121.464,851.019,121.291,850.987,120.966,850.954Z" transform="translate(289.255 1286.965)" fill="#0a509c"/>
    </g>
    <g id="Group_415" data-name="Group 415" transform="translate(8810.6 410.095)">
      <path id="Path_3" data-name="Path 3" d="M128.764,728.591c.361-9.367.374-18.682-.015-27.956.14-.084.211-.165.283-.166,3.673-.035,7.346-.08,11.019-.086a24.341,24.341,0,0,1,6.951.865,15.332,15.332,0,0,1,1.75.607,10.094,10.094,0,0,1,6.1,6.909,17.036,17.036,0,0,1-.881,12.048,13.475,13.475,0,0,1-10.283,7.738,12.465,12.465,0,0,1-2.115.163c-1.638.02-3.277.006-4.915,0q-3.652-.024-7.3-.065C129.184,728.641,129.018,728.614,128.764,728.591Zm6.559-25.563c-.032.42-.076.723-.076,1.027q0,10.676,0,21.351a6.986,6.986,0,0,0,.094.8,6.8,6.8,0,0,0,.932.2,18.64,18.64,0,0,0,4.624-.138,8.884,8.884,0,0,0,4.471-2.145,9.544,9.544,0,0,0,2.739-4.461,19.854,19.854,0,0,0,.728-7.475,11.333,11.333,0,0,0-1.935-5.706,8.183,8.183,0,0,0-6.586-3.646c-1.367-.061-2.739,0-4.109.03a5.9,5.9,0,0,0-.885.167Z" transform="translate(283.627 1394.765)" fill="#0a509c"/>
      <path id="Path_5" data-name="Path 5" d="M592.227,700.276c1.843,0,3.52.022,5.2-.006,1.593-.027,3.184-.133,4.777-.158a13.57,13.57,0,0,1,5.1.668,9.934,9.934,0,0,1,1.774.879,4.458,4.458,0,0,1,1.868,2.352,6.384,6.384,0,0,1-2.042,7.518A9.355,9.355,0,0,1,606.09,713c-.277.1-.537.238-.852.381.851.264,1.625.453,2.359.743a7.579,7.579,0,0,1,2.718,1.859,6.01,6.01,0,0,1,1.723,4.191,7.444,7.444,0,0,1-5.26,7.726,14.276,14.276,0,0,1-4.586.587c-3.1,0-6.2-.035-9.3-.059a4.416,4.416,0,0,1-.472-.049,1.184,1.184,0,0,1-.128-.139.23.23,0,0,1-.041-.119C592.655,718.877,592.65,709.635,592.227,700.276Zm6.693,25.737a5.75,5.75,0,0,0,2.842.108,3.828,3.828,0,0,0,2.358-1.348,4.927,4.927,0,0,0,1.028-1.833,8.062,8.062,0,0,0-.129-5.195,3.919,3.919,0,0,0-1.49-1.972,5.709,5.709,0,0,0-4.662-.592,68.59,68.59,0,0,0,.053,10.832Zm-.107-13.669c.113.054.191.122.271.125.485.019.971.035,1.456.029a4.5,4.5,0,0,0,4.409-3.338,6.8,6.8,0,0,0-.042-3.919,3.683,3.683,0,0,0-3.312-2.626c-.66-.044-1.324-.032-1.986-.01a3.607,3.607,0,0,0-.741.183,62.383,62.383,0,0,0-.056,9.557Z" transform="translate(-51.524 1394.96)" fill="#0a509c"/>
      <path id="Path_6" data-name="Path 6" d="M825.642,700.463c0,.914.024,1.746,0,2.576-.091,2.653-.218,5.3-.3,7.958-.061,1.946-.077,3.894-.108,5.841a20.056,20.056,0,0,1-.623,4.725,9.377,9.377,0,0,1-7.752,7.279,19.5,19.5,0,0,1-9.072-.267,9.191,9.191,0,0,1-6.924-6.817,13.249,13.249,0,0,1-.386-3.553q.028-3.386.026-6.773c0-3.275-.024-6.55-.037-9.826,0-.352,0-.7,0-1.12a2.8,2.8,0,0,1,.5-.095q2.852-.011,5.7,0a3.381,3.381,0,0,1,.443.068,13.286,13.286,0,0,1-.069,2.239c-.1,1.944-.221,3.886-.3,5.831-.061,1.459-.116,2.921-.1,4.38.027,1.9.093,3.8.215,5.7a12.7,12.7,0,0,0,.954,4.117,5.446,5.446,0,0,0,4.721,3.543,11.769,11.769,0,0,0,3.958,0,4.934,4.934,0,0,0,2.433-1.262,7.587,7.587,0,0,0,1.786-2.763,15.229,15.229,0,0,0,.986-4.655,109.293,109.293,0,0,0,.089-11.148c-.078-1.812-.137-3.625-.2-5.438a2.734,2.734,0,0,1,.1-.543Z" transform="translate(-202.103 1394.76)" fill="#0a509c"/>
      <path id="Path_7" data-name="Path 7" d="M454.742,700.427a3.162,3.162,0,0,1,.54-.094c2.788.156,5.572,0,8.358-.067a21.029,21.029,0,0,1,4.882.35,6.744,6.744,0,0,1,5.383,6.662,11.164,11.164,0,0,1-.456,3.4,7.1,7.1,0,0,1-3.55,4.27,11.912,11.912,0,0,1-5.081,1.341c-.839.042-1.681.019-2.522.032-.3,0-.608.031-.929.048a2.315,2.315,0,0,0-.177,1.439c.07,3.007.166,6.013.248,9.02.014.52,0,1.041,0,1.545a42.267,42.267,0,0,1-6.6.057,38.728,38.728,0,0,1,.077-4.575c.025-1.548.088-3.1.109-4.643.022-1.593.016-3.186.015-4.779,0-1.549,0-3.1-.02-4.646s-.065-3.1-.111-4.643S454.8,702.062,454.742,700.427Zm6.571,2.367c-.034.32-.074.535-.076.75q-.032,4.914-.051,9.829a4.957,4.957,0,0,0,.11.753,5.863,5.863,0,0,0,2.91-.418,4.467,4.467,0,0,0,2.42-2.154,8.84,8.84,0,0,0-.075-6.946,3.581,3.581,0,0,0-2.61-1.851,8.044,8.044,0,0,0-2.628.038Z" transform="translate(47.895 1394.861)" fill="#0a509c"/>
      <path id="Path_8" data-name="Path 8" d="M366.052,712.342c3.054.2,6.044-.348,9.055-.193v3.374a33.358,33.358,0,0,1-4.471-.138c-1.5-.056-3-.077-4.541-.114a1.958,1.958,0,0,0-.177.529q.008,4.714.039,9.427a1.841,1.841,0,0,0,.091.346,20.9,20.9,0,0,0,4.552-.047l4.567-.337a3.363,3.363,0,0,1,.116.6c.013.883.005,1.767.005,2.7a1.89,1.89,0,0,1-.5.15q-6.972-.01-13.944-.036c-.434,0-.868,0-1.389,0-.066-1.627.125-3.159.116-4.691-.009-1.549.058-3.1.075-4.647.017-1.593.021-3.187.018-4.781q0-2.324-.032-4.648c-.018-1.549-.041-3.1-.078-4.647s-.092-3.082-.139-4.645a2.45,2.45,0,0,1,1.44-.176c1.062.013,2.123.078,3.185.075,3.585-.011,7.169-.043,10.754-.061a2.16,2.16,0,0,1,.444.109v3.34a28.689,28.689,0,0,1-4.477-.188c-1.492-.1-2.991-.1-4.543-.145a4.612,4.612,0,0,0-.217.926c-.04,2.522-.059,5.044-.078,7.567A1.5,1.5,0,0,0,366.052,712.342Z" transform="translate(116.825 1394.791)" fill="#0a509c"/>
      <path id="Path_9" data-name="Path 9" d="M279.691,712.165v3.373a32.023,32.023,0,0,1-4.616-.158c-1.5-.093-2.985-.075-4.519-.049a69.2,69.2,0,0,0,.047,10.22,12.159,12.159,0,0,0,3.038.094c1.015-.029,2.028-.137,3.042-.216s2.021-.163,3.052-.246c.33.557.083,1.139.124,1.693.039.524.008,1.053.008,1.638a1.853,1.853,0,0,1-.488.143q-7.167-.018-14.333-.053c-.3,0-.606,0-.973,0a35.042,35.042,0,0,1,.106-4.658c-.015-1.548.034-3.1.043-4.645.009-1.593.006-3.185.006-4.778,0-1.548,0-3.1-.007-4.646s-.012-3.1-.056-4.645-.134-3.085-.2-4.586c.42-.424.881-.28,1.3-.273,1.946.032,3.892.116,5.837.115,2.743,0,5.485-.061,8.228-.093a3.613,3.613,0,0,1,.427.049,4.311,4.311,0,0,1,.1,1.679c.029.525.006,1.053.006,1.657a4.475,4.475,0,0,1-.756.1c-.972-.038-1.942-.109-2.913-.154q-2.583-.12-5.166-.22c-.076,0-.156.071-.233.109a46.984,46.984,0,0,0-.224,8.638,3.405,3.405,0,0,0,.717.126c1.944-.06,3.887-.148,5.831-.208C277.953,712.144,278.787,712.165,279.691,712.165Z" transform="translate(185.851 1394.789)" fill="#0a509c"/>
      <path id="Path_10" data-name="Path 10" d="M934.784,700c5.382.3,10.586.228,15.827.1,0,.617-.01,1.179,0,1.741.012.53.049,1.059.074,1.582-.295.325-.672.2-1,.187-2.031-.1-4.061-.231-6.091-.347-.655-.037-1.312-.062-1.942-.091a36.7,36.7,0,0,0-.33,8.844,3.95,3.95,0,0,0,.714.1c1.5-.052,3-.129,4.506-.186,1.149-.044,2.3-.074,3.449-.1a2.056,2.056,0,0,1,.438.1,8.523,8.523,0,0,1,0,1.69c.014.52,0,1.041,0,1.633a32.452,32.452,0,0,1-4.483-.182c-1.5-.006-3,0-4.565,0a4.339,4.339,0,0,0-.15.779q-.012,4.048.007,8.1c0,.437.081.873.129,1.347a4.866,4.866,0,0,0,1.856.069c.618-.011,1.236-.056,1.854-.087s1.237-.058,1.855-.1,1.236-.07,1.851-.139a5.729,5.729,0,0,1,1.859-.065v3.267a3.656,3.656,0,0,1-.62.107q-7.368,0-14.736-.008a2.673,2.673,0,0,1-.463-.1c-.093-2.337.165-4.662.183-6.99.018-2.345.012-4.691.012-7.036s.032-4.692-.019-7.036S934.785,702.513,934.784,700Z" transform="translate(-299.234 1395.035)" fill="#0a509c"/>
      <path id="Path_11" data-name="Path 11" d="M704.116,700.73h6.563a3.578,3.578,0,0,1,.106.7c-.075,2.565-.222,5.128-.239,7.693-.034,5.222,0,10.445.008,15.668,0,.343.052.685.085,1.087a25.793,25.793,0,0,0,4.675-.118l4.55-.307a7.092,7.092,0,0,1-.016,1.706c.019.525,0,1.052,0,1.592a.618.618,0,0,1-.088.068.293.293,0,0,1-.12.042c-.221.011-.442.024-.663.024H704.2a1.8,1.8,0,0,1-.157-.51c.088-3.228.224-6.456.276-9.684.087-5.4-.013-10.8-.2-16.194C704.1,701.93,704.116,701.366,704.116,700.73Z" transform="translate(-132.383 1394.51)" fill="#0a509c"/>
    </g>
    <g id="Group_417" data-name="Group 417" transform="translate(0 -93)">
      <path id="Path_12" data-name="Path 12" d="M346.875,895.661a6.413,6.413,0,0,1,.649-.078c1.369,0,2.737,0,4.106.019a3.011,3.011,0,0,1,.644.143,2.244,2.244,0,0,1,1.973,1.867,2.666,2.666,0,0,1-1.186,2.875c-.292.188-.6.356-1.006.6.317.139.539.248.769.336a2.982,2.982,0,0,1,1.216,4.775,3.713,3.713,0,0,1-2.391,1.295,32.166,32.166,0,0,1-4.7.091,34.865,34.865,0,0,1,.046-4c-.053-1.279,0-2.563-.016-3.844C346.964,898.418,346.914,897.1,346.875,895.661Zm1.795,6.046a14.382,14.382,0,0,0,.181,5.269c.534,0,1.105.038,1.67-.007a2.8,2.8,0,0,0,2.515-3.272,2.069,2.069,0,0,0-1.54-1.791,7.01,7.01,0,0,0-2.827-.2Zm.144-5.373c-.077.149-.182.259-.186.373-.045,1.142-.085,2.285-.1,3.427a3.355,3.355,0,0,0,.169.751,9.925,9.925,0,0,0,1.25-.011,5.49,5.49,0,0,0,1.4-.325,2.261,2.261,0,0,0,1.3-2.613,2.064,2.064,0,0,0-1.987-1.6h-1.845Z" transform="translate(8936.495 1751.702)" fill="#0a509c"/>
      <path id="Path_13" data-name="Path 13" d="M551.463,907.532h-1.449a20.14,20.14,0,0,1-.011-2.908c-.024-.924-.005-1.849-.005-2.838a16.588,16.588,0,0,0-3.583-.215c-1.145-.008-2.291.053-3.5.086a5.555,5.555,0,0,0-.119.809c.008,1.284.04,2.567.054,3.851,0,.388-.022.775-.037,1.219h-1.45c-.067-.121-.144-.2-.144-.271q-.022-5.575-.026-11.151a2.117,2.117,0,0,1,.127-.459c.245-.012.5-.031.75-.033.212,0,.425.02.707.034.214,1.661-.111,3.289.07,4.9a1.829,1.829,0,0,0,.431.129q3.121.009,6.241,0a1.794,1.794,0,0,0,.435-.138,19.7,19.7,0,0,0,.038-2.357c.011-.794,0-1.588,0-2.381a2.033,2.033,0,0,1,1.5-.072c.037.076.107.152.107.228q.01,5.642,0,11.283C551.6,907.32,551.531,907.4,551.463,907.532Z" transform="translate(8795.979 1751.675)" fill="#0a509c"/>
      <path id="Path_14" data-name="Path 14" d="M711.736,907.434h-1.595c-.019-.364-.059-.7-.052-1.042.029-1.326.079-2.651.106-3.976a6.142,6.142,0,0,0-.1-.828,41.177,41.177,0,0,0-6.993-.007,6.039,6.039,0,0,0-.129.889c0,1.15.032,2.3.048,3.449.006.48,0,.961,0,1.5a5.456,5.456,0,0,1-1.651,0V895.676c.457-.288.985-.113,1.533-.127a8.392,8.392,0,0,1,.088,2.5c.021.788,0,1.578,0,2.419a15.955,15.955,0,0,0,3.6.142,20.035,20.035,0,0,0,3.5-.1,4.988,4.988,0,0,0,.1-.768c-.026-1.016-.081-2.031-.111-3.047-.01-.344.021-.69.035-1.1h1.57a5.4,5.4,0,0,1,.107.826c-.023,1.768-.089,3.536-.093,5.3,0,1.547.061,3.094.086,4.641C711.79,906.71,711.754,907.055,711.736,907.434Z" transform="translate(8680.15 1751.756)" fill="#0a509c"/>
      <path id="Path_15" data-name="Path 15" d="M868.273,895.569h1.562a6.247,6.247,0,0,1,.116.87c0,.928-.038,1.857-.055,2.785-.007.394,0,.788,0,1.164a27.668,27.668,0,0,0,7.092.127,4.047,4.047,0,0,0,.111-.723c-.018-.972-.066-1.943-.095-2.915-.012-.391,0-.782,0-1.219a5.452,5.452,0,0,1,1.517-.107c.093.129.133.162.141.2a1.94,1.94,0,0,1,.056.387q-.019,5.566-.048,11.131c0,.037-.046.073-.109.166h-1.4c-.295-.393-.156-.838-.145-1.268.035-1.326.069-2.651.095-3.977a3.349,3.349,0,0,0-.08-.54,3.154,3.154,0,0,0-.654-.149q-2.786-.022-5.572-.011a5.252,5.252,0,0,0-.828.141,7.745,7.745,0,0,0-.1.916c.012,1.194.052,2.387.066,3.581a2.387,2.387,0,0,1-.136,1.32H868.3c-.087-1.351.08-2.661.06-3.971-.021-1.327-.012-2.654,0-3.98C868.368,898.2,868.225,896.889,868.273,895.569Z" transform="translate(8559.468 1751.729)" fill="#0a509c"/>
      <path id="Path_16" data-name="Path 16" d="M173.884,895.556c1.576,0,3.031-.016,4.485.011a4.379,4.379,0,0,1,1.165.225,2.642,2.642,0,0,1,1.487,4.13,3.828,3.828,0,0,1-1.732,1.39c-.36.162-.746.267-1.2.425a20.514,20.514,0,0,0,2.112,2.829c.713.94,1.467,1.849,2.27,2.854a3.859,3.859,0,0,1-1.938.1c-.452-.6-.892-1.206-1.355-1.793q-1.356-1.717-2.738-3.413c-.224-.275-.489-.54-.952-.263a39.276,39.276,0,0,0,.086,5.226c-.631.37-.631.373-1.657.181a11.17,11.17,0,0,1-.018-2.871c-.027-1.016.029-2.034.029-3.051,0-.973-.039-1.946-.035-2.919A18.717,18.717,0,0,1,173.884,895.556Zm1.613,5.561c.67,0,1.2.032,1.725-.008a2.953,2.953,0,0,0,2.007-.906,2.348,2.348,0,0,0,.56-2.342,2,2,0,0,0-1.692-1.5,5.557,5.557,0,0,0-2.5.084,24.952,24.952,0,0,0-.1,4.673Z" transform="translate(9061.651 1751.726)" fill="#0a509c"/>
      <path id="Path_17" data-name="Path 17" d="M388.133,895.54c1.478,0,2.936-.016,4.394.01a4.24,4.24,0,0,1,1.165.223,2.64,2.64,0,0,1,1.508,4.047,3.8,3.8,0,0,1-1.824,1.481c-.363.158-.746.27-1.158.416a6.909,6.909,0,0,0,1.07,1.507c.344.461.712.9,1.07,1.354.386.484.784.96,1.157,1.455a8.656,8.656,0,0,1,1.058,1.4,7.29,7.29,0,0,1-1.8.146c-.244-.292-.475-.551-.687-.826-.919-1.191-1.825-2.392-2.751-3.577a7.739,7.739,0,0,0-.981-1.076c-.161-.14-.455-.128-.744-.2-.244,1.894.2,3.693.032,5.506a2.608,2.608,0,0,1-1.511.1c-.084-.119-.123-.152-.133-.192a1.289,1.289,0,0,1-.07-.382,99.184,99.184,0,0,0,.025-11.006C387.95,895.851,388.021,895.773,388.133,895.54Zm1.431,5.508c.486.029.833.061,1.181.068a3.754,3.754,0,0,0,.794-.04,3.533,3.533,0,0,0,1.573-.662,2.435,2.435,0,0,0,.791-2.637,2.088,2.088,0,0,0-2-1.481,6.846,6.846,0,0,0-2.17.1,34.5,34.5,0,0,0-.173,4.652Z" transform="translate(8906.808 1751.737)" fill="#0a509c"/>
      <path id="Path_18" data-name="Path 18" d="M771.081,905.566l1.889,2.212c-.332.3-.648.177-.935.2-.307.02-.615,0-.957,0l-1.068-1.234c-.345.246-.659.465-.968.692a4.891,4.891,0,0,1-3.926.733,2.808,2.808,0,0,1-2-4,4.839,4.839,0,0,1,1.733-1.96c.32-.223.654-.425,1-.646a19.072,19.072,0,0,1-.871-1.956,2.5,2.5,0,0,1,1.357-3.1,2.935,2.935,0,0,1,2.558.011,1.717,1.717,0,0,1,1.01,1.958,2.765,2.765,0,0,1-.862,1.6c-.411.4-.857.759-1.288,1.136a12.508,12.508,0,0,0,2.839,3.612,5.488,5.488,0,0,0,1.078-1.454c.309-.481.584-.984.867-1.467.412-.091.573.146.723.538A30.307,30.307,0,0,1,771.081,905.566Zm-1.6.713a32.229,32.229,0,0,0-3.268-4.094,3.535,3.535,0,0,0-1.444,1.316,2.62,2.62,0,0,0-.1,2.645,2.4,2.4,0,0,0,2.273,1.312,3.3,3.3,0,0,0,2.539-1.179Zm-2.233-5.495c.854-.635,1.133-.876,1.351-1.395a3.928,3.928,0,0,0,.334-1.264,1.306,1.306,0,0,0-.945-1.3,1.367,1.367,0,0,0-1.654.767,1.67,1.67,0,0,0-.144,1.162A4.145,4.145,0,0,0,767.246,900.784Z" transform="translate(8635.698 1751.243)" fill="#0a509c"/>
      <path id="Path_19" data-name="Path 19" d="M131.084,897.083c-.413-.3-.684-.508-.962-.705a5.3,5.3,0,0,0-5.4-.537,4.176,4.176,0,0,0-2.387,2.694,7.23,7.23,0,0,0-.013,4.693,4.4,4.4,0,0,0,3.77,3.105,6.526,6.526,0,0,0,3.758-.433c.22-1.443.006-2.856.094-4.317a3.358,3.358,0,0,1,1.4-.053,21.455,21.455,0,0,1,.037,4.78,4.843,4.843,0,0,1-2.245.651,10.726,10.726,0,0,1-4.987-.164,5.221,5.221,0,0,1-3.8-4.186,7.468,7.468,0,0,1-.051-3.024,5.525,5.525,0,0,1,3.989-4.51,9.512,9.512,0,0,1,7.076.506C131.51,896.146,131.193,896.519,131.084,897.083Z" transform="translate(9100.433 1752.4)" fill="#0a509c"/>
      <path id="Path_20" data-name="Path 20" d="M941.771,907.443c-.513,0-.9.009-1.3-.005a1.4,1.4,0,0,1-.351-.105c0-.033-.032-11.657-.032-11.657.07-.048.14-.138.211-.139,1.459-.021,2.919-.033,4.379-.046a2,2,0,0,1,.265.01,2.785,2.785,0,0,1,2.622,1.714,3.322,3.322,0,0,1-.6,3.487,4.821,4.821,0,0,1-3.334,1.411,9.384,9.384,0,0,0-1.891.111C941.574,903.92,941.837,905.589,941.771,907.443Zm.049-6.146c.335.038.6.083.86.092s.531-.01.8-.027c2.062-.131,3-1.775,2.495-3.8a1.539,1.539,0,0,0-1.148-1.19,6.551,6.551,0,0,0-2.989-.1,20.191,20.191,0,0,0-.014,5.021Z" transform="translate(8507.526 1751.77)" fill="#0a509c"/>
      <path id="Path_21" data-name="Path 21" d="M254.153,906.867l-1.824-4.5c-1.41-.083-2.816-.018-4.261-.036a39.493,39.493,0,0,0-1.795,4.488,4.269,4.269,0,0,1-.6.124,2.337,2.337,0,0,1-.488-.058c-.04-.126-.106-.221-.082-.276.532-1.212,1.078-2.418,1.615-3.628,1.038-2.341,2.066-4.687,3.113-7.024a3.357,3.357,0,0,1,.714-1.277c.378.2.454.555.586.866q1.994,4.693,3.982,9.388a9.563,9.563,0,0,1,.75,1.864A2.787,2.787,0,0,1,254.153,906.867Zm-3.936-9.5a14.57,14.57,0,0,0-1.692,4.177c.578,0,1.145.012,1.711,0a5.634,5.634,0,0,0,1.751-.123c-.539-1.392-1.1-2.665-1.77-4.051Z" transform="translate(9010.093 1752.354)" fill="#0a509c"/>
      <path id="Path_22" data-name="Path 22" d="M215.114,907.5a4.367,4.367,0,0,1-.091-.55q0-5.509.021-11.018a1.157,1.157,0,0,1,.127-.312,6.141,6.141,0,0,1,1.911-.044c.664-.006,1.328,0,1.993,0h2.059l.1.822c-.156.077-.233.149-.309.147q-1.326-.04-2.65-.1a3.036,3.036,0,0,0-1.515.124,17.025,17.025,0,0,0-.044,4.217c1.372.141,2.689-.022,4.056.025v.953c-1.379.057-2.688-.246-4.073-.071a36.758,36.758,0,0,0-.024,4.922,37.757,37.757,0,0,0,4.472.079c.259.693.2.848-.411.857-1.461.022-2.922.017-4.384.013C215.962,907.562,215.571,907.526,215.114,907.5Z" transform="translate(9031.841 1751.748)" fill="#0a509c"/>
      <path id="Path_23" data-name="Path 23" d="M670.985,895.312l-.42,1.364c-.482.1-.473-.333-.641-.542a2.206,2.206,0,0,0-2.6-.74,2.111,2.111,0,0,0-.609,3.5,7.2,7.2,0,0,0,1.466.881c.43.221.9.355,1.341.565a2.906,2.906,0,0,1,1.977,2.579,3.705,3.705,0,0,1-1.641,3.421,5.188,5.188,0,0,1-3.187.659,4.088,4.088,0,0,1-2.335-.88l.327-1.569a5.663,5.663,0,0,1,.591.569,2.854,2.854,0,0,0,2.812,1.112,2.249,2.249,0,0,0,1.922-1.762,1.993,1.993,0,0,0-.786-2.339,11.46,11.46,0,0,0-1.519-.8c-.552-.276-1.138-.5-1.659-.821a2.951,2.951,0,0,1-1.433-3.057,3.012,3.012,0,0,1,2-2.594A4.511,4.511,0,0,1,670.985,895.312Z" transform="translate(8706.932 1752.493)" fill="#0a509c"/>
      <path id="Path_24" data-name="Path 24" d="M504.288,906.067l.263-1.327c.392-.139.475.185.616.379a2.83,2.83,0,0,0,2.792,1.155,2.277,2.277,0,0,0,1.97-1.718,2.03,2.03,0,0,0-.756-2.359,10.862,10.862,0,0,0-1.512-.81c-.552-.276-1.139-.492-1.665-.81a2.935,2.935,0,0,1-1.493-2.906,3.04,3.04,0,0,1,1.866-2.7,4.525,4.525,0,0,1,3.852-.036,4.875,4.875,0,0,1,.69.474l-.509,1.512c-.267-.364-.428-.61-.615-.835a2.2,2.2,0,0,0-2.862-.483,2.157,2.157,0,0,0-.3,3.323,14.961,14.961,0,0,0,1.6.918c.471.24.986.393,1.453.64a3.048,3.048,0,0,1,1.512,4.148,3.287,3.287,0,0,1-1.966,2.04,5.09,5.09,0,0,1-4.7-.34A1.61,1.61,0,0,1,504.288,906.067Z" transform="translate(8822.666 1752.466)" fill="#0a509c"/>
      <path id="Path_25" data-name="Path 25" d="M981.677,895.3l-.523,1.507c-.308-.4-.529-.712-.768-1.006a2.254,2.254,0,0,0-3.1,0,2.1,2.1,0,0,0,.164,3.063,9.05,9.05,0,0,0,1.608.9c.551.277,1.149.468,1.677.782a2.813,2.813,0,0,1,1.379,3.4,3.5,3.5,0,0,1-2.569,2.764,4.818,4.818,0,0,1-4.443-.63,2.44,2.44,0,0,1,.384-1.566c.265.295.491.556.727.808a2.828,2.828,0,0,0,2.8.8,2.094,2.094,0,0,0,1.363-.979,2.314,2.314,0,0,0-.681-3.245c-.517-.328-1.115-.526-1.666-.805a11.664,11.664,0,0,1-1.617-.89,2.59,2.59,0,0,1-1.1-2.024,3.109,3.109,0,0,1,2.483-3.551A4.009,4.009,0,0,1,981.677,895.3Z" transform="translate(8482.22 1752.546)" fill="#0a509c"/>
      <path id="Path_26" data-name="Path 26" d="M830.39,905.079c.212.652.029,1.061-.5,1.273a8.967,8.967,0,0,1-1.385.429,8.139,8.139,0,0,1-3.927-.068,5.393,5.393,0,0,1-4.074-4.262,7.185,7.185,0,0,1,.151-3.927,5.289,5.289,0,0,1,2.978-3.367,8.287,8.287,0,0,1,6.8.04c.076.032.132.114.219.193l-.3,1.248c-.39-.251-.718-.443-1.026-.663a4.448,4.448,0,0,0-3.919-.574,4.15,4.15,0,0,0-3.025,3.21,8.4,8.4,0,0,0,0,4.326,4.521,4.521,0,0,0,6.274,3.03C829.22,905.721,829.751,905.41,830.39,905.079Z" transform="translate(8594.148 1752.524)" fill="#0a509c"/>
      <path id="Path_27" data-name="Path 27" d="M619.3,895.68v.812c-1.538.26-3.07-.253-4.677,0a22.894,22.894,0,0,0-.117,4.233,18.408,18.408,0,0,0,4.319-.013l.058.778c-.117.083-.185.173-.253.173-.972,0-1.944-.017-2.916-.021-.346,0-.692.022-1.093.037a5.426,5.426,0,0,0-.11,1.871c.006.663.036,1.326.045,1.99.008.613,0,1.227,0,1.917a3.76,3.76,0,0,1-1.521.03c-.07-.13-.149-.207-.146-.28.163-3.834.141-7.669-.013-11.487A37.712,37.712,0,0,1,619.3,895.68Z" transform="translate(8744.145 1751.718)" fill="#0a509c"/>
      <path id="Path_28" data-name="Path 28" d="M293.949,895.563v.857c-.127.06-.2.128-.279.128-.706,0-1.413-.027-2.119-.03-.346,0-.691.026-.995.038a1.631,1.631,0,0,0-.245,1.2c.016,2.739.051,5.478.062,8.218a3.731,3.731,0,0,1-.079,1.464,2.477,2.477,0,0,1-1.629-.04c.035-1.19.084-2.369.1-3.548s.014-2.386,0-3.58.047-2.373-.051-3.588a4.292,4.292,0,0,0-1.864-.139,7.825,7.825,0,0,1-1.737-.054v-.841a10.913,10.913,0,0,1,2.892-.086c.972,0,1.945,0,2.917,0Z" transform="translate(8981.153 1751.759)" fill="#0a509c"/>
      <path id="Path_29" data-name="Path 29" d="M448.846,896.651c-1.256-.173-2.4.058-3.55-.042v-.921c1.181-.13,7.992-.1,8.788.038v.806c-1.13.269-2.285-.111-3.4.123a2.271,2.271,0,0,0-.264,1.425c.013,2.868-.1,5.739.136,8.6a6.916,6.916,0,0,1-.025.785,2.671,2.671,0,0,1-1.645.03,22.966,22.966,0,0,1,.029-3.558c-.012-1.192.03-2.384.019-3.576S448.879,897.986,448.846,896.651Z" transform="translate(8865.325 1751.686)" fill="#0a509c"/>
      <path id="Path_30" data-name="Path 30" d="M429.185,895.833H430.8c.136,1.324-.12,2.591-.078,3.861.043,1.326-.005,2.654.014,3.981.018,1.28.072,2.559.111,3.875-.512.39-1.063.224-1.648.14a14.368,14.368,0,0,1,0-2.926c-.006-1.017,0-2.035,0-3.052,0-.973,0-1.946,0-2.92A16.367,16.367,0,0,1,429.185,895.833Z" transform="translate(8877.029 1751.522)" fill="#0a509c"/>
      <path id="Path_31" data-name="Path 31" d="M921.577,907.451h-1.664c-.185-1.336.113-2.643.057-3.949-.055-1.279,0-2.562-.016-3.843-.019-1.317-.071-2.634-.11-4.04.288-.029.536-.064.786-.076s.526,0,.852,0a6.435,6.435,0,0,1,.092.793c-.021,2.3-.066,4.592-.075,6.888,0,1.147.051,2.3.078,3.443C921.581,906.879,921.577,907.094,921.577,907.451Z" transform="translate(8522.169 1751.736)" fill="#0a509c"/>
      <path id="Path_32" data-name="Path 32" d="M647.066,895.752h1.6c.135,1.36-.124,2.67-.08,3.981.044,1.28-.005,2.563.012,3.844.018,1.315.067,2.629.1,3.993a4.368,4.368,0,0,1-1.6.054l-.121-.4S647.065,895.85,647.066,895.752Z" transform="translate(8719.488 1751.58)" fill="#0a509c"/>
      <path id="Path_33" data-name="Path 33" d="M488.556,907.544h-1.638a6.114,6.114,0,0,1-.093-.8c.045-2.34.12-4.679.144-7.019.01-.97-.09-1.94-.131-2.911-.015-.345,0-.691,0-1.089a3.827,3.827,0,0,1,1.665-.067,7.555,7.555,0,0,1,.076,1.046,73.973,73.973,0,0,0,0,9.8C488.6,906.8,488.567,907.1,488.556,907.544Z" transform="translate(8835.294 1751.692)" fill="#0a509c"/>
    </g>
  </g>
</svg>
