<svg xmlns="http://www.w3.org/2000/svg" width="9" height="9.142" viewBox="0 0 9 9.142">
  <path id="order-list_2_" data-name="order-list (2)" d="M7.524,9.138H1.831a.818.818,0,0,1-.841-.79V.788A.818.818,0,0,1,1.831,0H7.524a.818.818,0,0,1,.841.79V2.071a.227.227,0,0,1-.455,0V.788A.363.363,0,0,0,7.524.454H1.831a.363.363,0,0,0-.386.333v7.56a.363.363,0,0,0,.386.333H7.524a.229.229,0,1,1,0,.457Zm-2.351-4.1h-.91a.229.229,0,0,1,0-.457h.91a.229.229,0,1,1,0,.457Zm-2.048,0h-.91a.229.229,0,0,1,0-.457h.91a.229.229,0,0,1,0,.457Zm2.048.914h-.91a.229.229,0,0,1,0-.457h.91a.229.229,0,1,1,0,.457Zm-2.048,0h-.91a.229.229,0,0,1,0-.457h.91a.229.229,0,1,1,0,.457Zm2.048.914h-.91a.229.229,0,0,1,0-.457h.91a.229.229,0,1,1,0,.457Zm-2.048,0h-.91a.229.229,0,0,1,0-.457h.91a.229.229,0,0,1,0,.457ZM7.166,2.3H6.311a.229.229,0,1,1,0-.457h.856a.229.229,0,0,1,0,.457Zm-1.993,0h-.91a.229.229,0,0,1,0-.457h.91a.229.229,0,1,1,0,.457Zm-2.048,0h-.91a.229.229,0,0,1,0-.457h.91a.229.229,0,0,1,0,.457Zm2.048.914h-.91a.229.229,0,0,1,0-.457h.91a.229.229,0,1,1,0,.457Zm-2.048,0h-.91a.229.229,0,0,1,0-.457h.91a.229.229,0,0,1,0,.457Zm2.048.914h-.91a.229.229,0,0,1,0-.457h.91a.229.229,0,1,1,0,.457Zm-2.048,0h-.91a.229.229,0,0,1,0-.457h.91a.229.229,0,0,1,0,.457ZM9.655,8.41l-.051,0C8.343,8.22,7.111,7.854,7.023,5.69H6.058a.229.229,0,0,1-.179-.37L7.588,3.132a.227.227,0,0,1,.358,0L9.655,5.321a.229.229,0,0,1-.179.37H8.5A1.936,1.936,0,0,0,9.809,7.771a.339.339,0,0,1-.154.639h0ZM6.525,5.233h.72a.228.228,0,0,1,.227.227c.007,1.645.644,2.145,1.554,2.373a2.326,2.326,0,0,1-.964-2.391.228.228,0,0,1,.227-.21h.72L7.767,3.644Z" transform="translate(-0.99 0.003)" fill="#fff" fill-rule="evenodd"/>
</svg>
