<svg xmlns="http://www.w3.org/2000/svg" width="11.642" height="15.875" viewBox="0 0 11.642 15.875">
  <path id="order-list_1_" data-name="order-list (1)" d="M8.731.53a.792.792,0,0,0-.793.792.265.265,0,0,1-.266.266H6.084a.263.263,0,0,0-.263.264V3.173a.261.261,0,0,0,.263.266h5.294a.262.262,0,0,0,.264-.266V1.851a.263.263,0,0,0-.264-.264H9.79a.265.265,0,0,1-.266-.265A.792.792,0,0,0,8.731.529Zm0,.528a.265.265,0,1,1-.265.264.265.265,0,0,1,.265-.264ZM4.5,2.116A1.386,1.386,0,0,0,3.176,3.439v9.79h.53V3.44A.791.791,0,0,1,4.5,2.646h.8V2.117Zm7.672,0v.53h.793a.832.832,0,0,1,.794.793V14.19a1.4,1.4,0,0,1-1.324,1.42H3.44a1.155,1.155,0,0,1-.264-.03v.56a.262.262,0,0,0,.265.264H14.023a.262.262,0,0,0,.265-.263V3.439a1.32,1.32,0,0,0-1.323-1.323ZM4.5,3.174a.264.264,0,0,0-.264.265v9.79h7.145a.266.266,0,0,1,.264.264l0,.7a.873.873,0,0,0,.79.891.877.877,0,0,0,.8-.89V3.439a.264.264,0,0,0-.266-.265h-.792a.79.79,0,0,1-.793.794H6.084a.793.793,0,0,1-.792-.794Zm.8,2.646H6.614a.265.265,0,0,1,0,.53H5.556V7.94H7.408V7.674a.265.265,0,0,1,.53,0V8.2a.265.265,0,0,1-.266.265H5.292A.265.265,0,0,1,5.027,8.2V6.086a.266.266,0,0,1,.266-.266Zm2.374.267a.265.265,0,0,1,.193.453L6.8,7.6a.265.265,0,0,1-.376,0L5.9,7.069a.265.265,0,0,1,.375-.375l.342.342.871-.872a.26.26,0,0,1,.182-.077ZM9,6.35h2.116a.265.265,0,0,1,0,.53H9a.265.265,0,0,1,0-.53Zm3.175,1.06a.265.265,0,1,1,0,.53H8.995a.265.265,0,1,1,0-.53ZM5.293,9.525H6.614a.265.265,0,0,1,0,.53H5.556v1.59H7.408v-.266a.265.265,0,0,1,.53,0v.53a.265.265,0,0,1-.266.265H5.292a.265.265,0,0,1-.265-.266V9.791a.265.265,0,0,1,.266-.266Zm2.567.72L6.8,11.3a.265.265,0,0,1-.376,0l-.529-.53a.265.265,0,0,1,.375-.375l.342.342.871-.87a.265.265,0,0,1,.375.375ZM9,10.052h2.116a.265.265,0,0,1,0,.53H9A.265.265,0,0,1,9,10.052Zm3.175,1.06a.265.265,0,0,1,0,.53H8.995a.265.265,0,0,1,0-.53ZM2.646,13.76v.431a.875.875,0,0,0,.793.89H11.42a1.469,1.469,0,0,1-.306-.888l0-.433Z" transform="translate(-2.646 -0.529)" fill="#fff"/>
</svg>
